<svg xmlns="http://www.w3.org/2000/svg" width="15" height="14" viewBox="0 0 15 14" fill="none">
  <path fill-rule="evenodd" clip-rule="evenodd" d="M9.39995 1.5H4.99995C4.13495 1.5 3.57695 1.501 3.15195 1.536C2.74395 1.569 2.59295 1.626 2.51895 1.663C2.23646 1.80685 2.0068 2.03651 1.86295 2.319C1.82595 2.393 1.76895 2.544 1.73595 2.952C1.71295 3.229 1.70495 3.562 1.70195 4H12.698C12.6991 3.65037 12.6878 3.30082 12.664 2.952C12.631 2.544 12.574 2.393 12.536 2.319C12.3924 2.03666 12.1631 1.80702 11.881 1.663C11.807 1.626 11.656 1.569 11.248 1.536C10.823 1.5 10.265 1.5 9.39995 1.5ZM1.69995 9.2V5.5H12.7V7.75H10.7C9.97061 7.75 9.27113 8.03973 8.75541 8.55546C8.23968 9.07118 7.94995 9.77065 7.94995 10.5V12.5H4.99995C4.13495 12.5 3.57695 12.499 3.15195 12.464C2.74395 12.431 2.59295 12.374 2.51895 12.336C2.23661 12.1924 2.00697 11.9631 1.86295 11.681C1.82595 11.607 1.76895 11.456 1.73595 11.048C1.69995 10.623 1.69995 10.065 1.69995 9.2ZM12.3 9.266C12.194 9.381 12.024 9.555 11.734 9.846L10.045 11.534C9.75495 11.824 9.58095 11.994 9.46595 12.1L9.44995 12.108V10.5C9.44995 9.81 10.01 9.25 10.7 9.25H12.308L12.3 9.266ZM10.353 13.316C10.2501 13.4051 10.1404 13.486 10.025 13.558C9.75663 13.7228 9.46405 13.8442 9.15795 13.918C8.81195 14 8.44595 14 7.71195 14H4.99995C3.31995 14 2.47995 14 1.83795 13.673C1.27349 13.3854 0.814567 12.9265 0.526951 12.362C0.199951 11.72 0.199951 10.88 0.199951 9.2V4.8C0.199951 3.12 0.199951 2.28 0.526951 1.638C0.814567 1.07354 1.27349 0.614616 1.83795 0.327C2.47995 0 3.31995 0 4.99995 0H9.39995C11.08 0 11.92 0 12.562 0.327C13.1264 0.614616 13.5853 1.07354 13.873 1.638C14.2 2.28 14.2 3.12 14.2 4.8V7.512C14.2 8.246 14.2 8.612 14.117 8.958C14.0432 9.2641 13.9217 9.55668 13.757 9.825C13.69 9.935 13.613 10.04 13.517 10.153C13.411 10.319 13.287 10.475 13.144 10.616L10.816 12.945C10.6755 13.0854 10.5203 13.2101 10.353 13.317V13.316Z" fill="black"/>
</svg>