<svg xmlns="http://www.w3.org/2000/svg" width="7" height="7" viewBox="0 0 7 7" fill="none">
  <g clip-path="url(#clip0_1_40)">
    <path fill-rule="evenodd" clip-rule="evenodd" d="M6.18994 1.25C6.18994 1.05109 6.11092 0.860322 5.97027 0.71967C5.82962 0.579018 5.63885 0.5 5.43994 0.5C5.24103 0.5 5.05026 0.579018 4.90961 0.71967C4.76896 0.860322 4.68994 1.05109 4.68994 1.25V3.44L2.09494 0.844C2.02628 0.770313 1.94348 0.711211 1.85148 0.670219C1.75948 0.629227 1.66017 0.607185 1.55946 0.605408C1.45876 0.603632 1.35873 0.622156 1.26534 0.659877C1.17196 0.697598 1.08712 0.753743 1.0159 0.824962C0.944684 0.89618 0.88854 0.981014 0.850819 1.0744C0.813098 1.16779 0.794573 1.26782 0.79635 1.36852C0.798127 1.46923 0.820168 1.56854 0.86116 1.66054C0.902152 1.75254 0.961255 1.83534 1.03494 1.904L3.62894 4.5H1.43994C1.24103 4.5 1.05026 4.57902 0.909611 4.71967C0.768959 4.86032 0.689941 5.05109 0.689941 5.25C0.689941 5.44891 0.768959 5.63968 0.909611 5.78033C1.05026 5.92098 1.24103 6 1.43994 6H5.43994C5.6382 6.00031 5.82847 5.9219 5.96894 5.782L5.96994 5.78L5.97194 5.779C6.11184 5.63852 6.19025 5.44826 6.18994 5.25V1.25Z" fill="#D72C0D"/>
  </g>
  <defs>
    <clipPath id="clip0_1_40">
      <rect width="6" height="6" fill="white" transform="translate(0.439941 0.25)"/>
    </clipPath>
  </defs>
</svg>