<svg xmlns="http://www.w3.org/2000/svg" width="20" height="20" viewBox="0 0 20 20" fill="none">
<path d="M7.75009 6.06001V13.75C7.75009 13.9489 7.67107 14.1397 7.53042 14.2803C7.38977 14.421 7.199 14.5 7.00009 14.5C6.80118 14.5 6.61041 14.421 6.46976 14.2803C6.32911 14.1397 6.25009 13.9489 6.25009 13.75V6.06001L4.53009 7.78001C4.38792 7.91249 4.19987 7.98461 4.00557 7.98119C3.81127 7.97776 3.62588 7.89905 3.48847 7.76163C3.35106 7.62422 3.27234 7.43884 3.26892 7.24453C3.26549 7.05023 3.33761 6.86219 3.47009 6.72001L6.47009 3.72001C6.61072 3.57956 6.80134 3.50067 7.00009 3.50067C7.19884 3.50067 7.38947 3.57956 7.53009 3.72001L10.5301 6.72001C10.6038 6.78867 10.6629 6.87147 10.7039 6.96347C10.7449 7.05547 10.7669 7.15479 10.7687 7.25549C10.7705 7.35619 10.7519 7.45622 10.7142 7.54961C10.6765 7.643 10.6203 7.72783 10.5491 7.79905C10.4779 7.87027 10.3931 7.92641 10.2997 7.96413C10.2063 8.00186 10.1063 8.02038 10.0056 8.0186C9.90487 8.01683 9.80555 7.99478 9.71355 7.95379C9.62155 7.9128 9.53875 7.8537 9.47009 7.78001L7.75009 6.06001Z" fill="#4A4A4A"/>
<path d="M13.7499 6.25C13.7499 6.05109 13.6709 5.86032 13.5302 5.71967C13.3896 5.57902 13.1988 5.5 12.9999 5.5C12.801 5.5 12.6102 5.57902 12.4696 5.71967C12.3289 5.86032 12.2499 6.05109 12.2499 6.25V13.94L10.5299 12.22C10.4612 12.1463 10.3784 12.0872 10.2864 12.0462C10.1944 12.0052 10.0951 11.9832 9.99443 11.9814C9.89373 11.9796 9.7937 11.9982 9.70031 12.0359C9.60692 12.0736 9.52209 12.1297 9.45087 12.201C9.37965 12.2722 9.32351 12.357 9.28579 12.4504C9.24807 12.5438 9.22954 12.6438 9.23132 12.7445C9.23309 12.8452 9.25514 12.9445 9.29613 13.0365C9.33712 13.1285 9.39622 13.2113 9.46991 13.28L12.4699 16.28C12.6105 16.4205 12.8012 16.4993 12.9999 16.4993C13.1987 16.4993 13.3893 16.4205 13.5299 16.28L16.5299 13.28C16.6036 13.2113 16.6627 13.1285 16.7037 13.0365C16.7447 12.9445 16.7667 12.8452 16.7685 12.7445C16.7703 12.6438 16.7518 12.5438 16.714 12.4504C16.6763 12.357 16.6202 12.2722 16.5489 12.201C16.4777 12.1297 16.3929 12.0736 16.2995 12.0359C16.2061 11.9982 16.1061 11.9796 16.0054 11.9814C15.9047 11.9832 15.8054 12.0052 15.7134 12.0462C15.6214 12.0872 15.5386 12.1463 15.4699 12.22L13.7499 13.94V6.25Z" fill="#4A4A4A"/>
</svg>
