<svg xmlns="http://www.w3.org/2000/svg" width="7" height="7" viewBox="0 0 7 7" fill="none">
  <g clip-path="url(#clip0_1_56)">
    <path fill-rule="evenodd" clip-rule="evenodd" d="M1.35815 0.500003C1.25966 0.500003 1.16214 0.519402 1.07114 0.557093C0.980148 0.594784 0.897468 0.650029 0.827824 0.719673C0.75818 0.789317 0.702936 0.871996 0.665245 0.96299C0.627554 1.05398 0.608154 1.15151 0.608154 1.25C0.608154 1.34849 0.627554 1.44602 0.665245 1.53702C0.702936 1.62801 0.75818 1.71069 0.827824 1.78033C0.897468 1.84998 0.980148 1.90522 1.07114 1.94291C1.16214 1.9806 1.25966 2 1.35815 2H3.54815L0.952154 4.595C0.819674 4.73718 0.747551 4.92522 0.750979 5.11953C0.754408 5.31383 0.833119 5.49921 0.970532 5.63662C1.10795 5.77404 1.29333 5.85275 1.48763 5.85618C1.68193 5.85961 1.86998 5.78748 2.01215 5.655L4.60815 3.061V5.25C4.60815 5.44892 4.68717 5.63968 4.82782 5.78033C4.96848 5.92099 5.15924 6 5.35815 6C5.55707 6 5.74783 5.92099 5.88848 5.78033C6.02914 5.63968 6.10815 5.44892 6.10815 5.25V1.25C6.10842 1.15144 6.0892 1.05379 6.0516 0.962678C6.014 0.871565 5.95877 0.788781 5.88907 0.719084C5.81938 0.649388 5.73659 0.594153 5.64548 0.556556C5.55437 0.518958 5.45672 0.499739 5.35815 0.500003H1.35815Z" fill="#007F5F"/>
  </g>
  <defs>
    <clipPath id="clip0_1_56">
      <rect width="6" height="6" fill="white" transform="translate(0.358154 0.25)"/>
    </clipPath>
  </defs>
</svg>